<?xml version="1.0" standalone="no"?>
<!DOCTYPE svg PUBLIC "-//W3C//DTD SVG 20010904//EN"
 "http://www.w3.org/TR/2001/REC-SVG-20010904/DTD/svg10.dtd">
<svg version="1.0" xmlns="http://www.w3.org/2000/svg"
 width="394.000000pt" height="377.000000pt" viewBox="0 0 394.000000 377.000000"
 preserveAspectRatio="xMidYMid meet">

<g transform="translate(0.000000,377.000000) scale(0.100000,-0.100000)"
fill="#000000" stroke="none">
<path d="M959 3553 c-58 -61 -85 -100 -122 -175 -26 -53 -47 -102 -47 -107 0
-16 -96 -203 -124 -241 -18 -25 -59 -52 -143 -95 -170 -87 -179 -116 -72 -231
71 -76 72 -89 9 -152 -49 -49 -52 -81 -10 -144 l31 -46 -21 -34 c-27 -44 -25
-77 6 -124 44 -64 54 -106 44 -171 -16 -98 -13 -150 12 -172 47 -45 187 -72
366 -72 145 0 297 -20 368 -47 162 -61 391 -284 410 -398 7 -50 -24 -137 -66
-182 -45 -47 -86 -65 -167 -70 -81 -5 -109 7 -172 72 -40 41 -55 46 -46 14 21
-68 124 -128 222 -128 120 0 200 46 249 143 14 26 29 45 34 42 45 -28 62 -346
26 -480 -10 -38 -25 -79 -32 -90 -8 -11 -14 -26 -14 -33 0 -26 -93 -158 -154
-217 -43 -42 -91 -75 -160 -110 -54 -27 -101 -56 -104 -63 -11 -29 15 -33 114
-18 101 16 234 63 292 105 17 11 33 21 37 21 9 0 136 103 167 136 189 200 299
441 331 727 21 183 -22 425 -107 599 -86 175 -259 352 -585 598 -46 34 -216
210 -289 298 -153 183 -262 424 -262 576 0 63 21 145 49 189 26 42 29 66 5 47
-36 -31 -74 -154 -74 -244 0 -145 62 -313 178 -481 102 -148 184 -236 406
-432 121 -107 239 -212 262 -232 133 -118 256 -296 306 -441 75 -220 76 -463
1 -695 -24 -72 -75 -187 -106 -240 -93 -154 -262 -325 -346 -350 l-24 -7 22
28 c111 144 166 292 177 479 19 307 -141 631 -396 801 -158 106 -216 123 -425
124 -149 0 -384 28 -425 50 -40 21 -49 47 -36 103 17 75 10 123 -29 200 -42
82 -43 96 -10 127 32 30 32 48 -5 92 -53 65 -55 80 -10 137 68 86 65 107 -25
192 -59 56 -70 92 -37 122 9 8 58 36 109 61 67 33 103 58 133 94 39 45 101
169 130 257 14 45 87 190 104 208 6 7 37 40 70 74 32 34 56 67 54 73 -2 7 -37
-24 -79 -67z"/>
<path d="M1145 3461 c-4 -27 0 -64 15 -118 46 -164 133 -314 259 -446 225
-235 517 -370 871 -402 41 -4 82 -11 92 -16 9 -5 33 -42 54 -81 20 -40 45 -85
55 -100 11 -14 19 -30 19 -35 0 -16 73 -117 152 -211 43 -51 79 -99 80 -105 1
-7 2 -100 3 -207 2 -261 25 -369 104 -484 37 -54 38 -60 6 -105 -28 -42 -55
-137 -55 -196 0 -57 27 -143 57 -183 13 -18 48 -48 76 -67 43 -29 61 -35 105
-35 75 0 143 32 179 83 27 40 28 44 27 168 -1 119 -13 189 -34 189 -4 0 -13
14 -20 30 -13 32 -71 77 -128 100 -27 10 -40 11 -72 0 -21 -7 -45 -10 -54 -7
-19 8 -81 139 -94 202 -11 51 0 394 13 415 3 5 15 10 25 10 17 0 115 -42 150
-65 8 -5 46 -20 85 -33 93 -30 140 -60 203 -125 58 -63 62 -79 36 -168 -20
-65 -14 -194 10 -251 49 -114 199 -178 306 -129 40 17 50 30 89 102 42 78 43
85 38 148 -9 119 -64 203 -162 246 -73 32 -125 36 -174 14 -50 -22 -65 -18
-82 24 -34 86 -153 195 -248 228 -17 6 -31 15 -31 20 0 5 -7 9 -15 9 -24 0
-125 56 -185 102 -29 22 -38 39 -54 100 -10 40 -23 80 -27 88 -4 8 -24 47 -42
86 -42 86 -51 102 -99 172 -48 69 -49 96 -5 118 59 30 137 105 163 157 34 66
35 163 4 248 -19 50 -34 69 -89 114 -36 30 -69 55 -73 55 -17 0 -6 -17 34 -50
74 -60 93 -85 107 -141 37 -138 -8 -250 -134 -330 -77 -49 -86 -47 -183 48
-116 112 -232 190 -232 155 0 -5 39 -45 88 -89 89 -83 129 -140 119 -167 -12
-31 -42 -15 -87 47 -47 65 -63 62 -40 -8 6 -19 9 -39 5 -45 -22 -36 -368 44
-542 126 -191 90 -361 233 -498 418 -99 134 -173 333 -147 391 9 20 9 25 -2
25 -9 0 -17 -16 -21 -39z m1422 -1028 c33 -51 71 -121 95 -175 4 -10 3 -20 -2
-23 -9 -6 -145 158 -169 203 -16 30 -8 52 19 52 14 0 32 -18 57 -57z m222
-362 c8 -14 7 -22 -3 -30 -18 -15 -46 -3 -46 18 0 35 33 43 49 12z m802 -571
c18 0 102 -85 115 -117 23 -55 18 -127 -12 -162 -24 -29 -30 -31 -94 -31 -127
0 -169 45 -157 169 6 75 36 127 80 140 18 5 38 7 45 5 8 -2 18 -4 23 -4z
m-523 -374 c61 -31 94 -164 67 -266 -15 -58 -51 -100 -85 -100 -31 0 -77 33
-104 74 -22 33 -26 52 -26 110 0 83 24 140 72 174 38 26 41 26 76 8z"/>
<path d="M1238 2868 c36 -57 155 -189 222 -247 97 -83 255 -203 368 -280 292
-196 470 -352 566 -494 64 -94 117 -224 141 -346 30 -144 7 -396 -46 -535 -69
-177 -170 -309 -293 -381 -34 -20 -44 -31 -37 -38 33 -33 232 132 300 247 122
206 178 535 127 751 -70 300 -238 505 -640 775 -378 255 -578 412 -661 520
-49 63 -81 83 -47 28z"/>
</g>
</svg>
